<svg xmlns="http://www.w3.org/2000/svg" xmlns:xlink="http://www.w3.org/1999/xlink" width="356" height="420" version="1.1" viewBox="0 0 356 420"><title>ipadpro</title><desc>Created with Sketch.</desc><defs><path id="path-1" d="M0,9.40354112 C0,4.21022395 4.19868341,0 9.37753231,0 L177.355056,0 C182.534217,0 186.732588,4.20993377 186.732588,9.40354112 L186.732588,249.634053 C186.732588,254.82737 182.533905,259.037594 177.355056,259.037594 L9.37753231,259.037594 C4.19837093,259.037594 0,254.82766 0,249.634053 L0,9.40354112 Z"/><filter id="filter-3" width="134.8%" height="127%" x="-17.4%" y="-6.8%" filterUnits="objectBoundingBox"><feMorphology in="SourceAlpha" operator="erode" radius="7.5" result="shadowSpreadOuter1"/><feOffset dx="0" dy="20" in="shadowSpreadOuter1" result="shadowOffsetOuter1"/><feGaussianBlur in="shadowOffsetOuter1" result="shadowBlurOuter1" stdDeviation="15"/><feColorMatrix in="shadowBlurOuter1" type="matrix" values="0 0 0 0 0 0 0 0 0 0 0 0 0 0 0 0 0 0 0.153504303 0"/></filter><filter id="filter-4" width="118.2%" height="115.1%" x="-9.1%" y="-.8%" filterUnits="objectBoundingBox"><feGaussianBlur in="SourceAlpha" result="shadowBlurInner1" stdDeviation="2"/><feOffset dx="0" dy="0" in="shadowBlurInner1" result="shadowOffsetInner1"/><feComposite in="shadowOffsetInner1" in2="SourceAlpha" k2="-1" k3="1" operator="arithmetic" result="shadowInnerInner1"/><feColorMatrix in="shadowInnerInner1" type="matrix" values="0 0 0 0 0 0 0 0 0 0 0 0 0 0 0 0 0 0 0.05 0"/></filter></defs><g id="Page-1" fill="none" fill-rule="evenodd" stroke="none" stroke-width="1"><g id="Desktop-HD-Copy-53" transform="translate(-846.000000, -1501.000000)"><g id="Group-4" transform="translate(440.000000, 1031.000000)"><g id="Group-5" transform="translate(406.000000, 470.000000)"><g id="Card"><g id="iPad-Pro"><rect id="bounds" width="356" height="420" x="0" y="0"/><g transform="translate(85.000000, 48.000000)"><g id="Device"><mask id="mask-2" fill="#fff"><use xlink:href="#path-1"/></mask><g id="Shape" fill-rule="nonzero"><use fill="#000" fill-opacity="1" filter="url(#filter-3)" xlink:href="#path-1"/><use fill="#FAFAFA" fill-rule="evenodd" xlink:href="#path-1"/><use fill="#000" fill-opacity="1" filter="url(#filter-4)" xlink:href="#path-1"/></g><path id="Shape" fill="#DFDFDF" fill-rule="nonzero" d="M93.5743766,253.585526 L93.5743766,253.585526 C95.7849402,253.585526 97.5769561,251.79172 97.5769561,249.578947 C97.5769561,247.366175 95.7849402,245.572368 93.5743766,245.572368 C91.363813,245.572368 89.5717971,247.366175 89.5717971,249.578947 C89.5717971,251.79172 91.363813,253.585526 93.5743766,253.585526 L93.5743766,253.585526 Z M93.5743766,254.157895 L93.5743766,254.157895 C91.0480182,254.157895 89,252.10783 89,249.578947 C89,247.050065 91.0480182,245 93.5743766,245 C96.1007351,245 98.1487532,247.050065 98.1487532,249.578947 C98.1487532,252.10783 96.1007351,254.157895 93.5743766,254.157895 L93.5743766,254.157895 Z" mask="url(#mask-2)"/><ellipse id="Shape" cx="93.389" cy="10.39" fill="#DFDFDF" mask="url(#mask-2)" rx="1.389" ry="1.39"/></g><g id="Screen" fill="#FFF" transform="translate(9.000000, 18.000000)"><rect width="167.291" height="223.387" x="0" y="0" rx=".164"/></g></g></g></g></g></g></g></g></svg>