<svg xmlns="http://www.w3.org/2000/svg" xmlns:xlink="http://www.w3.org/1999/xlink" width="356" height="420" version="1.1" viewBox="0 0 356 420"><title>iphonex</title><desc>Created with Sketch.</desc><defs><path id="path-1" d="M128.95,89.7 L128.95,236.3 C128.95,250.659096 121.609096,259 106.25,259 L23.75,259 C7.89090433,259 1.05,251.159096 1.05,236.3 L1.05,96 L0.70022295,96 C0.377809717,95.8331299 0.173465154,95.7632999 0.0558579708,95.474646 C0.0354514516,95.4245605 0.00212355214,95.2180303 0.00212355214,95.1771484 C0.00212355214,85.3909726 0.00212355214,79.5368873 0.00212355214,77.6148926 C0.00212355214,77.5765951 0.0258017631,77.4441284 0.0557366946,77.4022595 C0.201069277,77.198988 0.473247102,77.055883 0.70022295,77 L1.05,77 L1.05,72.3 L0.70022295,72.3 C0.377809717,72.1331299 0.173465154,72.0632999 0.0558579708,71.774646 C0.0354514516,71.7245605 0.00212355214,71.5180303 0.00212355214,71.4771484 C0.00212355214,61.6909726 0.00212355214,55.8368873 0.00212355214,53.9148926 C0.00212355214,53.8765951 0.0258017631,53.7441284 0.0557366946,53.7022595 C0.201069277,53.498988 0.473247102,53.355883 0.70022295,53.3 L1.05,53.3 L1.05,45 L0.70022295,45 C0.314673299,45 0.00212355214,44.6865993 0.00212355214,44.3 L0.00212355214,35.7 C0.00212355214,35.3134007 0.314673299,35 0.70022295,35 L1.05,35 L1.05,22.7 C1.05,7.84090433 7.89090433,0 23.75,0 L106.25,0 C122.109096,0 128.95,7.84090433 128.95,22.7 L128.95,59.5 L129.299777,59.5 C129.526753,59.555883 129.798931,59.698988 129.944263,59.9022595 C129.974198,59.9441284 129.997876,60.0765951 129.997876,60.1148926 C129.997876,62.0368873 129.997876,79.0909726 129.997876,88.8771484 C129.997876,88.9180303 129.964549,89.1245605 129.944142,89.174646 C129.826535,89.4632999 129.62219,89.5331299 129.299777,89.7 L128.95,89.7 Z"/><filter id="filter-2" width="150%" height="127%" x="-25%" y="-6.8%" filterUnits="objectBoundingBox"><feMorphology in="SourceAlpha" operator="erode" radius="7.5" result="shadowSpreadOuter1"/><feOffset dx="0" dy="20" in="shadowSpreadOuter1" result="shadowOffsetOuter1"/><feGaussianBlur in="shadowOffsetOuter1" result="shadowBlurOuter1" stdDeviation="15"/><feColorMatrix in="shadowBlurOuter1" type="matrix" values="0 0 0 0 0 0 0 0 0 0 0 0 0 0 0 0 0 0 0.153504303 0"/></filter><filter id="filter-3" width="126.2%" height="115.1%" x="-13.1%" y="-.8%" filterUnits="objectBoundingBox"><feGaussianBlur in="SourceAlpha" result="shadowBlurInner1" stdDeviation="2"/><feOffset dx="0" dy="0" in="shadowBlurInner1" result="shadowOffsetInner1"/><feComposite in="shadowOffsetInner1" in2="SourceAlpha" k2="-1" k3="1" operator="arithmetic" result="shadowInnerInner1"/><feColorMatrix in="shadowInnerInner1" type="matrix" values="0 0 0 0 0 0 0 0 0 0 0 0 0 0 0 0 0 0 0.05 0"/></filter><rect id="path-4" width="15.66" height="2.429" x="57.22" y="9.3" rx="1.214"/><path id="path-6" d="M87.9382239,2.59900421 L87.9382239,2.69896591 C87.9382239,5.47729534 85.8094302,8.99655304 80.9111969,8.99655304 L32.1235521,8.99655304 C27.2253188,8.99655304 25.0965251,5.47729534 25.0965251,2.69896591 L25.0965251,2.59900358 C25.0965251,1.31399807 25.0965247,1.4205412e-15 22.7876473,0 L13.0501931,0 C4.91239071,0 0,4.89162272 0,12.9950211 L0,230.511681 C0,238.61508 4.91239071,243.506702 13.0501931,243.506702 L99.8841699,243.506702 C108.021972,243.506702 112.934363,238.61508 112.934363,230.511681 L112.934363,12.9950211 C112.934363,4.89162272 108.021972,0 99.8841699,0 L90.2471042,0 C87.9382239,0 87.9382239,1.31399851 87.9382239,2.59900421 Z"/></defs><g id="Page-1" fill="none" fill-rule="evenodd" stroke="none" stroke-width="1"><g id="Desktop-HD-Copy-53" transform="translate(-440.000000, -1031.000000)"><g id="Group-4" transform="translate(440.000000, 1031.000000)"><g id="Group-5"><g id="Card"><g id="iPhoneX"><rect id="bounds" width="356" height="420" x="0" y="0"/><g transform="translate(113.000000, 48.000000)"><g id="Device"><g id="Shape"><use fill="#000" fill-opacity="1" filter="url(#filter-2)" xlink:href="#path-1"/><use fill="#FAFAFA" fill-rule="evenodd" xlink:href="#path-1"/><use fill="#000" fill-opacity="1" filter="url(#filter-3)" xlink:href="#path-1"/></g><mask id="mask-5" fill="#fff"><use xlink:href="#path-4"/></mask><use id="Speaker" fill="#DFDFDF" xlink:href="#path-4"/></g><g id="Screen" transform="translate(8.532819, 7.697051)"><mask id="mask-7" fill="#fff"><use xlink:href="#path-6"/></mask><use fill="#FFF" xlink:href="#path-6"/></g></g></g></g></g></g></g></g></svg>