<svg xmlns="http://www.w3.org/2000/svg" xmlns:xlink="http://www.w3.org/1999/xlink" width="356" height="420" version="1.1" viewBox="0 0 356 420"><title>galaxys9</title><desc>Created with Sketch.</desc><defs><path id="path-1" d="M35.3228035,258.49335 C34.8836419,258.264947 33.8200065,258.103828 32.5776213,258.103828 C31.3352362,258.103828 30.2716007,258.264947 29.8324391,258.49335 L23.6186055,258.49335 C5.07733813,258.49335 1.18211388,251.71566 1.18211388,236.680094 L1.18211388,22.2869518 C1.18211388,7.25181892 5.07733813,0.473696036 23.6186055,0.473696036 L96.3813945,0.473696036 C114.922662,0.473696036 118.817886,7.25138622 118.817886,22.2869518 L118.817886,236.680094 C118.817886,251.71566 114.922662,258.49335 96.3813945,258.49335 L35.3228035,258.49335 Z M0.515625,44.0212702 C0.800396824,44.0212702 1.03125,44.2521234 1.03125,44.5368952 L1.03125,80.0988148 C1.03125,80.3835866 0.800396824,80.6144398 0.515625,80.6144398 C0.230853176,80.6144398 -5.20237022e-16,80.3835866 -5.55111512e-16,80.0988148 L0,44.5368952 C-3.48744903e-17,44.2521234 0.230853176,44.0212702 0.515625,44.0212702 Z M0.515625,95.3461544 C0.798813592,95.3461544 1.0283833,95.5757241 1.0283833,95.8589127 L1.0283833,112.206096 C1.0283833,112.489285 0.798813592,112.718855 0.515625,112.718855 C0.232436408,112.718855 0.00286669601,112.489285 0.00286669601,112.206096 L0.00286669601,95.8589127 C0.00286669601,95.5757241 0.232436408,95.3461544 0.515625,95.3461544 Z M119.484375,80.8490114 C119.769147,80.8490114 120,81.0798646 120,81.3646364 L120,97.7698753 C120,98.0546471 119.769147,98.2855003 119.484375,98.2855003 C119.199603,98.2855003 118.96875,98.0546471 118.96875,97.7698753 L118.96875,81.3646364 C118.96875,81.0798646 119.199603,80.8490114 119.484375,80.8490114 Z"/><filter id="filter-2" width="154.2%" height="127.1%" x="-27.1%" y="-6.8%" filterUnits="objectBoundingBox"><feMorphology in="SourceAlpha" operator="erode" radius="7.5" result="shadowSpreadOuter1"/><feOffset dx="0" dy="20" in="shadowSpreadOuter1" result="shadowOffsetOuter1"/><feGaussianBlur in="shadowOffsetOuter1" result="shadowBlurOuter1" stdDeviation="15"/><feColorMatrix in="shadowBlurOuter1" type="matrix" values="0 0 0 0 0 0 0 0 0 0 0 0 0 0 0 0 0 0 0.153504303 0"/></filter><filter id="filter-3" width="128.3%" height="115.1%" x="-14.2%" y="-.8%" filterUnits="objectBoundingBox"><feGaussianBlur in="SourceAlpha" result="shadowBlurInner1" stdDeviation="2"/><feOffset dx="0" dy="0" in="shadowBlurInner1" result="shadowOffsetInner1"/><feComposite in="shadowOffsetInner1" in2="SourceAlpha" k2="-1" k3="1" operator="arithmetic" result="shadowInnerInner1"/><feColorMatrix in="shadowInnerInner1" type="matrix" values="0 0 0 0 0 0 0 0 0 0 0 0 0 0 0 0 0 0 0.05 0"/></filter><path id="path-4" d="M9.73806062,0 C4.18777641,0 0,4.88891677 0,10.439201 L0,220.158074 C0,225.708359 4.18777641,230.597275 9.73806062,230.597275 L102.444398,230.597275 C107.994682,230.597275 112.182458,225.708359 112.182458,220.158074 L112.182458,10.439201 C112.182458,4.88891677 107.994682,0 102.444398,0 L9.73806062,0 Z"/></defs><g id="Page-1" fill="none" fill-rule="evenodd" stroke="none" stroke-width="1"><g id="Desktop-HD-Copy-53" transform="translate(-1252.000000, -1031.000000)"><g id="Group-4" transform="translate(440.000000, 1031.000000)"><g id="Group-5" transform="translate(812.000000, 0.000000)"><g id="Card"><g id="Galaxy-S9"><rect id="bounds" width="356" height="420" x="0" y="0"/><g transform="translate(118.000000, 48.000000)"><g id="Device"><g id="Shape"><use fill="#000" fill-opacity="1" filter="url(#filter-2)" xlink:href="#path-1"/><use fill="#FAFAFA" fill-rule="evenodd" xlink:href="#path-1"/><use fill="#000" fill-opacity="1" filter="url(#filter-3)" xlink:href="#path-1"/></g><rect id="Shape" width="15.269" height="2.026" x="52.683" y="8.057" fill="#DFDFDF" rx="1.013"/></g><g id="Screen" transform="translate(3.750000, 14.621630)"><mask id="mask-5" fill="#fff"><use xlink:href="#path-4"/></mask><use fill="#FFF" fill-rule="nonzero" xlink:href="#path-4"/></g></g></g></g></g></g></g></g></svg>